# xmcd CD database file
#
# Track frame offsets:
#	150
#	19962
#	39562
#	60195
#	72300
#	94527
#	120280
#	139732
#	157085
#	174107
#
# Disc length: 2518 seconds
#
# Revision: 2
# Processed by: cddbd v1.5.1PL0 Copyright (c) Steve Scherf et al.
# Submitted via: CDex 1.51
#
DISCID=7709d40a
DTITLE=古巨基 - 路邊攤
DYEAR=1998
DGENRE=Pop
TTITLE0=路邊攤
TTITLE1=中箭
TTITLE2=冬天
TTITLE3=樂在其中
TTITLE4=日記
TTITLE5=幸福號列車
TTITLE6=放下
TTITLE7=!!!
TTITLE8=鏡子裡的人
TTITLE9=只友情不變
EXTD=YEAR: 1998
EXTT0=
EXTT1=
EXTT2=
EXTT3=
EXTT4=
EXTT5=
EXTT6=
EXTT7=
EXTT8=
EXTT9=
PLAYORDER=
